<svg width="468" height="84" viewBox="0 0 468 84" fill="none" xmlns="http://www.w3.org/2000/svg">
<path d="M29.4925 64.275C23.3725 64.275 18.1592 62.9433 13.8525 60.28C9.54583 57.5883 6.245 53.8483 3.95 49.06C1.68333 44.2717 0.55 38.7183 0.55 32.4C0.55 26.0817 1.68333 20.5283 3.95 15.74C6.245 10.9517 9.54583 7.22583 13.8525 4.56249C18.1592 1.87083 23.3725 0.524999 29.4925 0.524999C36.5475 0.524999 42.3842 2.31 47.0025 5.88C51.6492 9.45 54.8792 14.2525 56.6925 20.2875L47.6825 22.71C46.4925 18.4317 44.3675 15.0742 41.3075 12.6375C38.2758 10.2008 34.3375 8.9825 29.4925 8.9825C25.1575 8.9825 21.545 9.96 18.655 11.915C15.765 13.87 13.5833 16.6042 12.11 20.1175C10.665 23.6308 9.9425 27.725 9.9425 32.4C9.91417 37.075 10.6225 41.1692 12.0675 44.6825C13.5408 48.1958 15.7225 50.93 18.6125 52.885C21.5308 54.84 25.1575 55.8175 29.4925 55.8175C34.3375 55.8175 38.2758 54.5992 41.3075 52.1625C44.3675 49.6975 46.4925 46.34 47.6825 42.09L56.6925 44.5125C54.8792 50.5475 51.6492 55.35 47.0025 58.92C42.3842 62.49 36.5475 64.275 29.4925 64.275ZM68.8448 83.4L77.7273 59.2175L77.8548 66.3575L57.8373 17.1H67.1023L82.0623 55.1375H79.3423L93.6223 17.1H102.632L77.3023 83.4H68.8448ZM127.438 64.275C123.046 64.275 119.363 63.2125 116.388 61.0875C113.413 58.9342 111.16 56.03 109.63 52.375C108.1 48.72 107.335 44.5975 107.335 40.0075C107.335 35.4175 108.086 31.295 109.588 27.64C111.118 23.985 113.356 21.1092 116.303 19.0125C119.278 16.8875 122.933 15.825 127.268 15.825C131.574 15.825 135.286 16.8875 138.403 19.0125C141.548 21.1092 143.97 23.985 145.67 27.64C147.37 31.2667 148.22 35.3892 148.22 40.0075C148.22 44.5975 147.37 48.7342 145.67 52.4175C143.999 56.0725 141.604 58.9625 138.488 61.0875C135.399 63.2125 131.716 64.275 127.438 64.275ZM105.848 63V1.8H114.773V29.9775H113.753V63H105.848ZM126.205 56.2425C129.039 56.2425 131.376 55.52 133.218 54.075C135.088 52.63 136.476 50.6892 137.383 48.2525C138.318 45.7875 138.785 43.0392 138.785 40.0075C138.785 37.0042 138.318 34.2842 137.383 31.8475C136.476 29.4108 135.074 27.47 133.175 26.025C131.277 24.58 128.854 23.8575 125.908 23.8575C123.131 23.8575 120.836 24.5375 119.023 25.8975C117.238 27.2575 115.906 29.1558 115.028 31.5925C114.178 34.0292 113.753 36.8342 113.753 40.0075C113.753 43.1808 114.178 45.9858 115.028 48.4225C115.878 50.8592 117.224 52.7717 119.065 54.16C120.907 55.5483 123.287 56.2425 126.205 56.2425ZM174.562 64.275C170 64.275 165.991 63.2833 162.534 61.3C159.106 59.2883 156.428 56.4975 154.502 52.9275C152.603 49.3292 151.654 45.1642 151.654 40.4325C151.654 35.4175 152.589 31.0683 154.459 27.385C156.357 23.7017 158.992 20.8542 162.364 18.8425C165.736 16.8308 169.66 15.825 174.137 15.825C178.812 15.825 182.792 16.9158 186.079 19.0975C189.366 21.2508 191.817 24.325 193.432 28.32C195.075 32.315 195.727 37.0608 195.387 42.5575H186.504V39.3275C186.447 34.0008 185.427 30.0625 183.444 27.5125C181.489 24.9625 178.5 23.6875 174.477 23.6875C170.028 23.6875 166.685 25.09 164.447 27.895C162.208 30.7 161.089 34.7517 161.089 40.05C161.089 45.0933 162.208 49.0033 164.447 51.78C166.685 54.5283 169.915 55.9025 174.137 55.9025C176.913 55.9025 179.307 55.2792 181.319 54.0325C183.359 52.7575 184.946 50.9442 186.079 48.5925L194.792 51.355C193.007 55.4633 190.301 58.6508 186.674 60.9175C183.047 63.1558 179.01 64.275 174.562 64.275ZM158.199 42.5575V35.63H190.967V42.5575H158.199ZM201.522 63V17.1H209.427V28.235L208.322 26.79C208.889 25.3167 209.625 23.9708 210.532 22.7525C211.439 21.5058 212.487 20.4858 213.677 19.6925C214.839 18.8425 216.128 18.1908 217.544 17.7375C218.989 17.2558 220.463 16.9725 221.964 16.8875C223.466 16.7742 224.911 16.845 226.299 17.1V25.43C224.798 25.0333 223.126 24.92 221.284 25.09C219.471 25.26 217.799 25.8408 216.269 26.8325C214.824 27.7675 213.677 28.9008 212.827 30.2325C212.005 31.5642 211.41 33.0517 211.042 34.695C210.674 36.31 210.489 38.0242 210.489 39.8375V63H201.522ZM247.738 64.19C242.553 64.19 238.246 63.1133 234.818 60.96C231.39 58.7783 229.265 55.775 228.443 51.95L232.098 51.27C232.863 54.1033 234.648 56.37 237.453 58.07C240.286 59.77 243.743 60.62 247.823 60.62C251.988 60.62 255.289 59.7275 257.725 57.9425C260.19 56.1575 261.423 53.735 261.423 50.675C261.423 49.0033 261.055 47.6433 260.318 46.595C259.581 45.5183 258.136 44.5408 255.983 43.6625C253.858 42.7842 250.713 41.7783 246.548 40.645C242.185 39.455 238.785 38.3075 236.348 37.2025C233.94 36.0692 232.24 34.8083 231.248 33.42C230.285 32.0033 229.803 30.275 229.803 28.235C229.803 25.7983 230.525 23.645 231.97 21.775C233.415 19.905 235.413 18.4458 237.963 17.3975C240.513 16.3492 243.46 15.825 246.803 15.825C250.175 15.825 253.206 16.3917 255.898 17.525C258.618 18.63 260.8 20.1883 262.443 22.2C264.115 24.1833 265.078 26.4783 265.333 29.085L261.678 29.765C261.14 26.5633 259.496 24.0417 256.748 22.2C254.028 20.33 250.628 19.395 246.548 19.395C242.723 19.3383 239.592 20.1175 237.155 21.7325C234.747 23.3475 233.543 25.4583 233.543 28.065C233.543 29.51 233.954 30.7567 234.775 31.805C235.597 32.825 237.028 33.76 239.068 34.61C241.108 35.46 243.941 36.3383 247.568 37.245C252.158 38.4067 255.728 39.5825 258.278 40.7725C260.856 41.9625 262.655 43.3508 263.675 44.9375C264.724 46.5242 265.248 48.4933 265.248 50.845C265.248 55.01 263.69 58.2825 260.573 60.6625C257.456 63.0142 253.178 64.19 247.738 64.19ZM279.37 63L265.345 17.1H269.085L281.24 56.88L293.395 17.1H297.135L309.29 56.88L321.53 17.1H325.185L311.16 63H307.42L295.265 23.135L283.11 63H279.37ZM346.232 64.275C341.897 64.275 338.157 63.2975 335.012 61.3425C331.895 59.3875 329.487 56.5967 327.787 52.97C326.087 49.3433 325.237 45.0367 325.237 40.05C325.237 35.035 326.073 30.7142 327.744 27.0875C329.444 23.4608 331.853 20.6842 334.969 18.7575C338.114 16.8025 341.868 15.825 346.232 15.825C350.623 15.825 354.378 16.8167 357.494 18.8C360.611 20.7833 362.991 23.6592 364.634 27.4275C366.306 31.1958 367.142 35.7433 367.142 41.07H363.317V39.88C363.147 33.2783 361.588 28.2208 358.642 24.7075C355.723 21.1658 351.587 19.395 346.232 19.395C340.792 19.395 336.57 21.2083 333.567 24.835C330.563 28.4333 329.062 33.505 329.062 40.05C329.062 46.595 330.563 51.6808 333.567 55.3075C336.57 58.9058 340.792 60.705 346.232 60.705C350.028 60.705 353.358 59.8125 356.219 58.0275C359.081 56.2425 361.362 53.6783 363.062 50.335L366.037 52.035C364.167 55.945 361.518 58.9625 358.089 61.0875C354.661 63.2125 350.708 64.275 346.232 64.275ZM327.532 41.07V37.5H364.932V41.07H327.532ZM391.557 64.275C387.222 64.275 383.482 63.2975 380.337 61.3425C377.221 59.3875 374.812 56.5967 373.112 52.97C371.412 49.3433 370.562 45.0367 370.562 40.05C370.562 35.035 371.398 30.7142 373.07 27.0875C374.77 23.4608 377.178 20.6842 380.295 18.7575C383.44 16.8025 387.194 15.825 391.557 15.825C395.949 15.825 399.703 16.8167 402.82 18.8C405.936 20.7833 408.316 23.6592 409.96 27.4275C411.631 31.1958 412.467 35.7433 412.467 41.07H408.642V39.88C408.472 33.2783 406.914 28.2208 403.967 24.7075C401.049 21.1658 396.912 19.395 391.557 19.395C386.117 19.395 381.896 21.2083 378.892 24.835C375.889 28.4333 374.387 33.505 374.387 40.05C374.387 46.595 375.889 51.6808 378.892 55.3075C381.896 58.9058 386.117 60.705 391.557 60.705C395.354 60.705 398.683 59.8125 401.545 58.0275C404.406 56.2425 406.687 53.6783 408.387 50.335L411.362 52.035C409.492 55.945 406.843 58.9625 403.415 61.0875C399.986 63.2125 396.034 64.275 391.557 64.275ZM372.857 41.07V37.5H410.257V41.07H372.857ZM423.368 63V11.915C423.368 10.725 423.439 9.63416 423.58 8.6425C423.75 7.6225 424.034 6.6875 424.43 5.8375C424.827 4.9875 425.38 4.18 426.088 3.415C426.768 2.70666 427.519 2.14 428.34 1.715C429.19 1.29 430.125 0.992499 431.145 0.822497C432.165 0.624165 433.285 0.524999 434.503 0.524999H440.453V3.755H434.928C432.265 3.755 430.267 4.3925 428.935 5.6675C427.604 6.9425 426.938 9.13833 426.938 12.255V63H423.368ZM415.038 20.67V17.1H440.453V20.67H415.038ZM467.557 63C465.262 63.51 462.995 63.6942 460.757 63.5525C458.518 63.4392 456.521 62.915 454.764 61.98C453.007 61.0167 451.69 59.5717 450.812 57.645C450.132 56.1433 449.749 54.6275 449.664 53.0975C449.579 51.5392 449.537 49.7683 449.537 47.785V4.35H453.107V47.785C453.107 49.7683 453.121 51.3692 453.149 52.5875C453.206 53.8058 453.503 54.9533 454.042 56.03C455.062 58.07 456.677 59.3308 458.887 59.8125C461.097 60.2658 463.987 60.195 467.557 59.6V63ZM438.742 20.67V17.1H467.557V20.67H438.742Z" fill="#337D7E"/>
</svg>
